<?xml version="1.0" encoding="utf-8"?>
<!-- Generator: Adobe Illustrator 16.0.2, SVG Export Plug-In . SVG Version: 6.00 Build 0)  -->
<!DOCTYPE svg PUBLIC "-//W3C//DTD SVG 1.1//EN" "http://www.w3.org/Graphics/SVG/1.1/DTD/svg11.dtd">
<svg version="1.1" id="Layer_1" xmlns="http://www.w3.org/2000/svg" xmlns:xlink="http://www.w3.org/1999/xlink" x="0px" y="0px"
	 width="512px" height="512px" viewBox="0 0 512 512" enable-background="new 0 0 512 512" xml:space="preserve">
<path d="M256,0L0,192v320h512V192L256,0z M352,288.219l-96,75.438l-96-75.438V192h192V288.219z M172.359,338.625L32,458.938V228.344
	L172.359,338.625z M256,404.344l58-45.563L455.406,480H56.594l141.422-121.219L256,404.344z M480,228.344v230.594L339.656,338.625
	L480,228.344z M466.75,198.063L384,263.094V160h-32H160h-32v103.063l-82.75-65L256,40L466.75,198.063z M320,240H192v-16h128V240z
	 M320,272H192v-16h128V272z M320,304H192v-16h128V304z"/>
</svg>
